STARTFONT 2.1
FONT -Fondu--Medium-R-Normal--16-150-75-75-P-76-MacRoman-1
SIZE 15 75 75
FONTBOUNDINGBOX 13 16 0 -3
COMMENT Created by Fondu from a mac NFNT/FONT resource
STARTPROPERTIES 17
FOUNDRY "Fondu"
FAMILY_NAME ""
WEIGHT_NAME "Medium"
SLANT "R"
SETWIDTH_NAME "Normal"
ADD_STYLE_NAME ""
PIXEL_SIZE 16
POINT_SIZE 150
RESOLUTION_X 75
RESOLUTION_Y 75
SPACING "P"
AVERAGE_WIDTH 76
CHARSET_REGISTRY "MacRoman"
CHARSET_ENCODING "1"
FONT_ASCENT 13
FONT_DESCENT 3
FACE_NAME "nameless"
ENDPROPERTIES
CHARS 223
STARTCHAR space
ENCODING 32
SWIDTH 187 0
DWIDTH 3 0
BBX 0 0 0 -3
BITMAP
ENDCHAR
STARTCHAR exclam
ENCODING 33
SWIDTH 250 0
DWIDTH 4 0
BBX 1 10 1 0
BITMAP
80
80
80
80
80
80
80
80
00
80
ENDCHAR
STARTCHAR quotedbl
ENCODING 34
SWIDTH 250 0
DWIDTH 4 0
BBX 3 3 0 7
BITMAP
A0
A0
A0
ENDCHAR
STARTCHAR numbersign
ENCODING 35
SWIDTH 500 0
DWIDTH 8 0
BBX 7 9 0 1
BITMAP
14
14
7E
28
28
28
FC
50
50
ENDCHAR
STARTCHAR dollar
ENCODING 36
SWIDTH 500 0
DWIDTH 8 0
BBX 5 11 1 -1
BITMAP
20
70
A8
A0
60
30
28
28
A8
70
20
ENDCHAR
STARTCHAR percent
ENCODING 37
SWIDTH 750 0
DWIDTH 12 0
BBX 8 10 2 0
BITMAP
61
92
94
64
08
10
26
29
49
86
ENDCHAR
STARTCHAR ampersand
ENCODING 38
SWIDTH 562 0
DWIDTH 9 0
BBX 8 10 0 0
BITMAP
30
48
48
50
20
52
8A
84
8A
71
ENDCHAR
STARTCHAR quotesingle
ENCODING 39
SWIDTH 187 0
DWIDTH 3 0
BBX 1 3 1 7
BITMAP
80
80
80
ENDCHAR
STARTCHAR parenleft
ENCODING 40
SWIDTH 312 0
DWIDTH 5 0
BBX 3 13 1 -3
BITMAP
20
40
40
80
80
80
80
80
80
80
40
40
20
ENDCHAR
STARTCHAR parenright
ENCODING 41
SWIDTH 312 0
DWIDTH 5 0
BBX 3 13 1 -3
BITMAP
80
40
40
20
20
20
20
20
20
20
40
40
80
ENDCHAR
STARTCHAR asterisk
ENCODING 42
SWIDTH 375 0
DWIDTH 6 0
BBX 5 6 0 4
BITMAP
20
20
F8
70
50
08
ENDCHAR
STARTCHAR plus
ENCODING 43
SWIDTH 500 0
DWIDTH 8 0
BBX 7 7 0 1
BITMAP
10
10
10
FE
10
10
10
ENDCHAR
STARTCHAR comma
ENCODING 44
SWIDTH 250 0
DWIDTH 4 0
BBX 2 4 1 -3
BITMAP
40
40
40
80
ENDCHAR
STARTCHAR hyphen
ENCODING 45
SWIDTH 312 0
DWIDTH 5 0
BBX 4 1 0 4
BITMAP
F0
ENDCHAR
STARTCHAR period
ENCODING 46
SWIDTH 187 0
DWIDTH 3 0
BBX 1 1 1 0
BITMAP
80
ENDCHAR
STARTCHAR slash
ENCODING 47
SWIDTH 250 0
DWIDTH 4 0
BBX 3 10 0 0
BITMAP
20
20
20
40
40
40
40
80
80
80
ENDCHAR
STARTCHAR zero
ENCODING 48
SWIDTH 500 0
DWIDTH 8 0
BBX 5 10 1 0
BITMAP
70
88
88
88
88
88
88
88
88
70
ENDCHAR
STARTCHAR one
ENCODING 49
SWIDTH 500 0
DWIDTH 8 0
BBX 3 10 1 0
BITMAP
20
60
A0
20
20
20
20
20
20
20
ENDCHAR
STARTCHAR two
ENCODING 50
SWIDTH 500 0
DWIDTH 8 0
BBX 6 10 1 0
BITMAP
30
48
84
84
08
10
20
40
80
FC
ENDCHAR
STARTCHAR three
ENCODING 51
SWIDTH 500 0
DWIDTH 8 0
BBX 6 10 1 0
BITMAP
70
88
04
08
30
08
04
04
88
70
ENDCHAR
STARTCHAR four
ENCODING 52
SWIDTH 500 0
DWIDTH 8 0
BBX 7 10 0 0
BITMAP
04
0C
14
24
44
84
FE
04
04
04
ENDCHAR
STARTCHAR five
ENCODING 53
SWIDTH 500 0
DWIDTH 8 0
BBX 6 10 1 0
BITMAP
FC
80
80
F0
88
04
04
04
88
70
ENDCHAR
STARTCHAR six
ENCODING 54
SWIDTH 500 0
DWIDTH 8 0
BBX 6 10 1 0
BITMAP
30
48
80
B0
C8
84
84
84
48
30
ENDCHAR
STARTCHAR seven
ENCODING 55
SWIDTH 500 0
DWIDTH 8 0
BBX 6 10 1 0
BITMAP
FC
04
04
08
08
10
10
20
20
20
ENDCHAR
STARTCHAR eight
ENCODING 56
SWIDTH 500 0
DWIDTH 8 0
BBX 6 10 1 0
BITMAP
78
84
84
84
78
84
84
84
84
78
ENDCHAR
STARTCHAR nine
ENCODING 57
SWIDTH 500 0
DWIDTH 8 0
BBX 6 10 1 0
BITMAP
30
48
84
84
84
4C
34
04
48
30
ENDCHAR
STARTCHAR colon
ENCODING 58
SWIDTH 187 0
DWIDTH 3 0
BBX 1 8 1 0
BITMAP
80
00
00
00
00
00
00
80
ENDCHAR
STARTCHAR semicolon
ENCODING 59
SWIDTH 187 0
DWIDTH 3 0
BBX 2 11 0 -3
BITMAP
40
00
00
00
00
00
00
40
40
40
80
ENDCHAR
STARTCHAR less
ENCODING 60
SWIDTH 500 0
DWIDTH 8 0
BBX 6 5 1 2
BITMAP
0C
30
C0
30
0C
ENDCHAR
STARTCHAR equal
ENCODING 61
SWIDTH 437 0
DWIDTH 7 0
BBX 6 3 0 3
BITMAP
FC
00
FC
ENDCHAR
STARTCHAR greater
ENCODING 62
SWIDTH 500 0
DWIDTH 8 0
BBX 6 5 1 2
BITMAP
C0
30
0C
30
C0
ENDCHAR
STARTCHAR question
ENCODING 63
SWIDTH 500 0
DWIDTH 8 0
BBX 6 10 1 0
BITMAP
30
48
84
04
08
10
20
20
00
20
ENDCHAR
STARTCHAR at
ENCODING 64
SWIDTH 875 0
DWIDTH 14 0
BBX 11 11 1 -1
BITMAP
1F00
60C0
4E40
9120
A120
A220
A640
9B80
4000
6080
1F00
ENDCHAR
STARTCHAR A
ENCODING 65
SWIDTH 562 0
DWIDTH 9 0
BBX 9 10 0 0
BITMAP
0800
0800
1400
1400
2200
2200
7F00
4100
8080
8080
ENDCHAR
STARTCHAR B
ENCODING 66
SWIDTH 562 0
DWIDTH 9 0
BBX 7 10 1 0
BITMAP
F8
84
82
84
F8
84
82
82
84
F8
ENDCHAR
STARTCHAR C
ENCODING 67
SWIDTH 625 0
DWIDTH 10 0
BBX 8 10 1 0
BITMAP
3C
42
81
80
80
80
80
81
42
3C
ENDCHAR
STARTCHAR D
ENCODING 68
SWIDTH 625 0
DWIDTH 10 0
BBX 8 10 1 0
BITMAP
FC
82
81
81
81
81
81
81
82
FC
ENDCHAR
STARTCHAR E
ENCODING 69
SWIDTH 562 0
DWIDTH 9 0
BBX 7 10 1 0
BITMAP
FE
80
80
80
FE
80
80
80
80
FE
ENDCHAR
STARTCHAR F
ENCODING 70
SWIDTH 562 0
DWIDTH 9 0
BBX 7 10 1 0
BITMAP
FE
80
80
80
FE
80
80
80
80
80
ENDCHAR
STARTCHAR G
ENCODING 71
SWIDTH 687 0
DWIDTH 11 0
BBX 8 10 1 0
BITMAP
3C
42
81
80
80
87
81
81
43
3D
ENDCHAR
STARTCHAR H
ENCODING 72
SWIDTH 625 0
DWIDTH 10 0
BBX 8 10 1 0
BITMAP
81
81
81
81
FF
81
81
81
81
81
ENDCHAR
STARTCHAR I
ENCODING 73
SWIDTH 250 0
DWIDTH 4 0
BBX 1 10 1 0
BITMAP
80
80
80
80
80
80
80
80
80
80
ENDCHAR
STARTCHAR J
ENCODING 74
SWIDTH 375 0
DWIDTH 6 0
BBX 5 10 0 0
BITMAP
08
08
08
08
08
08
08
88
88
70
ENDCHAR
STARTCHAR K
ENCODING 75
SWIDTH 562 0
DWIDTH 9 0
BBX 8 10 0 0
BITMAP
82
84
88
90
A0
D0
88
84
82
81
ENDCHAR
STARTCHAR L
ENCODING 76
SWIDTH 500 0
DWIDTH 8 0
BBX 6 10 1 0
BITMAP
80
80
80
80
80
80
80
80
80
FC
ENDCHAR
STARTCHAR M
ENCODING 77
SWIDTH 750 0
DWIDTH 12 0
BBX 9 10 1 0
BITMAP
8080
8080
C180
C180
A280
A280
9480
9480
8880
8880
ENDCHAR
STARTCHAR N
ENCODING 78
SWIDTH 625 0
DWIDTH 10 0
BBX 8 10 1 0
BITMAP
81
C1
A1
B1
91
89
8D
85
83
81
ENDCHAR
STARTCHAR O
ENCODING 79
SWIDTH 687 0
DWIDTH 11 0
BBX 8 10 1 0
BITMAP
3C
42
81
81
81
81
81
81
42
3C
ENDCHAR
STARTCHAR P
ENCODING 80
SWIDTH 562 0
DWIDTH 9 0
BBX 7 10 1 0
BITMAP
F8
84
82
82
84
F8
80
80
80
80
ENDCHAR
STARTCHAR Q
ENCODING 81
SWIDTH 687 0
DWIDTH 11 0
BBX 8 10 1 0
BITMAP
3C
42
81
81
81
81
81
85
42
3D
ENDCHAR
STARTCHAR R
ENCODING 82
SWIDTH 625 0
DWIDTH 10 0
BBX 8 10 1 0
BITMAP
FC
82
81
81
82
FC
82
81
81
81
ENDCHAR
STARTCHAR S
ENCODING 83
SWIDTH 562 0
DWIDTH 9 0
BBX 7 10 1 0
BITMAP
38
44
82
40
38
04
02
82
44
38
ENDCHAR
STARTCHAR T
ENCODING 84
SWIDTH 562 0
DWIDTH 9 0
BBX 7 10 1 0
BITMAP
FE
10
10
10
10
10
10
10
10
10
ENDCHAR
STARTCHAR U
ENCODING 85
SWIDTH 625 0
DWIDTH 10 0
BBX 8 10 1 0
BITMAP
81
81
81
81
81
81
81
81
42
3C
ENDCHAR
STARTCHAR V
ENCODING 86
SWIDTH 562 0
DWIDTH 9 0
BBX 7 10 1 0
BITMAP
82
82
82
44
44
28
28
10
10
10
ENDCHAR
STARTCHAR W
ENCODING 87
SWIDTH 812 0
DWIDTH 13 0
BBX 13 10 0 0
BITMAP
8208
8208
4210
4510
4510
28A0
28A0
1040
1040
1040
ENDCHAR
STARTCHAR X
ENCODING 88
SWIDTH 562 0
DWIDTH 9 0
BBX 9 10 0 0
BITMAP
8080
4100
2200
1400
0800
0800
1400
2200
4100
8080
ENDCHAR
STARTCHAR Y
ENCODING 89
SWIDTH 562 0
DWIDTH 9 0
BBX 9 10 0 0
BITMAP
8080
4100
2200
1400
0800
0800
0800
0800
0800
0800
ENDCHAR
STARTCHAR Z
ENCODING 90
SWIDTH 562 0
DWIDTH 9 0
BBX 7 10 1 0
BITMAP
FE
02
04
08
10
10
20
40
80
FE
ENDCHAR
STARTCHAR bracketleft
ENCODING 91
SWIDTH 250 0
DWIDTH 4 0
BBX 2 13 1 -3
BITMAP
C0
80
80
80
80
80
80
80
80
80
80
80
C0
ENDCHAR
STARTCHAR backslash
ENCODING 92
SWIDTH 250 0
DWIDTH 4 0
BBX 3 10 0 0
BITMAP
80
80
80
40
40
40
40
20
20
20
ENDCHAR
STARTCHAR bracketright
ENCODING 93
SWIDTH 250 0
DWIDTH 4 0
BBX 2 13 1 -3
BITMAP
C0
40
40
40
40
40
40
40
40
40
40
40
C0
ENDCHAR
STARTCHAR asciicircum
ENCODING 94
SWIDTH 375 0
DWIDTH 6 0
BBX 5 3 0 7
BITMAP
20
50
88
ENDCHAR
STARTCHAR underscore
ENCODING 95
SWIDTH 500 0
DWIDTH 8 0
BBX 8 1 0 -3
BITMAP
FF
ENDCHAR
STARTCHAR grave
ENCODING 96
SWIDTH 250 0
DWIDTH 4 0
BBX 2 2 1 8
BITMAP
80
40
ENDCHAR
STARTCHAR a
ENCODING 97
SWIDTH 500 0
DWIDTH 8 0
BBX 7 8 0 0
BITMAP
78
84
04
1C
64
84
8C
72
ENDCHAR
STARTCHAR b
ENCODING 98
SWIDTH 500 0
DWIDTH 8 0
BBX 6 10 1 0
BITMAP
80
80
B0
C8
84
84
84
84
C8
B0
ENDCHAR
STARTCHAR c
ENCODING 99
SWIDTH 437 0
DWIDTH 7 0
BBX 5 8 1 0
BITMAP
30
48
80
80
80
80
48
30
ENDCHAR
STARTCHAR d
ENCODING 100
SWIDTH 500 0
DWIDTH 8 0
BBX 6 10 1 0
BITMAP
04
04
34
4C
84
84
84
84
4C
34
ENDCHAR
STARTCHAR e
ENCODING 101
SWIDTH 500 0
DWIDTH 8 0
BBX 6 8 1 0
BITMAP
30
48
84
FC
80
84
48
30
ENDCHAR
STARTCHAR f
ENCODING 102
SWIDTH 250 0
DWIDTH 4 0
BBX 4 10 0 0
BITMAP
30
40
F0
40
40
40
40
40
40
40
ENDCHAR
STARTCHAR g
ENCODING 103
SWIDTH 500 0
DWIDTH 8 0
BBX 6 11 1 -3
BITMAP
34
4C
84
84
84
84
4C
34
04
48
30
ENDCHAR
STARTCHAR h
ENCODING 104
SWIDTH 500 0
DWIDTH 8 0
BBX 6 10 1 0
BITMAP
80
80
B0
C8
84
84
84
84
84
84
ENDCHAR
STARTCHAR i
ENCODING 105
SWIDTH 187 0
DWIDTH 3 0
BBX 1 10 1 0
BITMAP
80
00
80
80
80
80
80
80
80
80
ENDCHAR
STARTCHAR j
ENCODING 106
SWIDTH 187 0
DWIDTH 3 0
BBX 2 13 0 -3
BITMAP
40
00
40
40
40
40
40
40
40
40
40
40
80
ENDCHAR
STARTCHAR k
ENCODING 107
SWIDTH 437 0
DWIDTH 7 0
BBX 5 10 1 0
BITMAP
80
80
88
90
A0
C0
C0
A0
90
88
ENDCHAR
STARTCHAR l
ENCODING 108
SWIDTH 187 0
DWIDTH 3 0
BBX 1 10 1 0
BITMAP
80
80
80
80
80
80
80
80
80
80
ENDCHAR
STARTCHAR m
ENCODING 109
SWIDTH 750 0
DWIDTH 12 0
BBX 11 8 0 0
BITMAP
B180
CA40
8420
8420
8420
8420
8420
8420
ENDCHAR
STARTCHAR n
ENCODING 110
SWIDTH 500 0
DWIDTH 8 0
BBX 6 8 1 0
BITMAP
B0
C8
84
84
84
84
84
84
ENDCHAR
STARTCHAR o
ENCODING 111
SWIDTH 500 0
DWIDTH 8 0
BBX 6 8 1 0
BITMAP
30
48
84
84
84
84
48
30
ENDCHAR
STARTCHAR p
ENCODING 112
SWIDTH 500 0
DWIDTH 8 0
BBX 6 11 1 -3
BITMAP
B0
C8
84
84
84
84
C8
B0
80
80
80
ENDCHAR
STARTCHAR q
ENCODING 113
SWIDTH 500 0
DWIDTH 8 0
BBX 6 11 1 -3
BITMAP
34
4C
84
84
84
84
4C
34
04
04
04
ENDCHAR
STARTCHAR r
ENCODING 114
SWIDTH 312 0
DWIDTH 5 0
BBX 4 8 1 0
BITMAP
B0
C0
80
80
80
80
80
80
ENDCHAR
STARTCHAR s
ENCODING 115
SWIDTH 437 0
DWIDTH 7 0
BBX 5 8 1 0
BITMAP
70
88
80
70
08
08
88
70
ENDCHAR
STARTCHAR t
ENCODING 116
SWIDTH 250 0
DWIDTH 4 0
BBX 3 10 0 0
BITMAP
40
40
E0
40
40
40
40
40
40
20
ENDCHAR
STARTCHAR u
ENCODING 117
SWIDTH 500 0
DWIDTH 8 0
BBX 6 8 1 0
BITMAP
84
84
84
84
84
84
4C
34
ENDCHAR
STARTCHAR v
ENCODING 118
SWIDTH 437 0
DWIDTH 7 0
BBX 5 8 1 0
BITMAP
88
88
50
50
50
20
20
20
ENDCHAR
STARTCHAR w
ENCODING 119
SWIDTH 625 0
DWIDTH 10 0
BBX 9 8 0 0
BITMAP
8880
8880
8880
5500
5500
2200
2200
2200
ENDCHAR
STARTCHAR x
ENCODING 120
SWIDTH 437 0
DWIDTH 7 0
BBX 5 8 1 0
BITMAP
88
88
50
20
20
50
88
88
ENDCHAR
STARTCHAR y
ENCODING 121
SWIDTH 437 0
DWIDTH 7 0
BBX 7 11 0 -3
BITMAP
82
82
44
44
28
28
10
10
20
20
C0
ENDCHAR
STARTCHAR z
ENCODING 122
SWIDTH 437 0
DWIDTH 7 0
BBX 6 8 0 0
BITMAP
FC
04
08
10
20
40
80
FC
ENDCHAR
STARTCHAR braceleft
ENCODING 123
SWIDTH 312 0
DWIDTH 5 0
BBX 3 13 1 -3
BITMAP
20
40
40
40
40
40
80
40
40
40
40
40
20
ENDCHAR
STARTCHAR bar
ENCODING 124
SWIDTH 187 0
DWIDTH 3 0
BBX 1 13 1 -3
BITMAP
80
80
80
80
80
80
80
80
80
80
80
80
80
ENDCHAR
STARTCHAR braceright
ENCODING 125
SWIDTH 312 0
DWIDTH 5 0
BBX 3 13 1 -3
BITMAP
80
40
40
40
40
40
20
40
40
40
40
40
80
ENDCHAR
STARTCHAR asciitilde
ENCODING 126
SWIDTH 437 0
DWIDTH 7 0
BBX 6 2 0 3
BITMAP
64
98
ENDCHAR
STARTCHAR Adieresis
ENCODING 128
SWIDTH 562 0
DWIDTH 9 0
BBX 9 11 0 0
BITMAP
2200
0800
0800
1400
1400
2200
2200
7F00
4100
8080
8080
ENDCHAR
STARTCHAR Aring
ENCODING 129
SWIDTH 562 0
DWIDTH 9 0
BBX 9 12 0 0
BITMAP
7F00
0000
0800
0800
1400
1400
2200
2200
7F00
4100
8080
8080
ENDCHAR
STARTCHAR Ccedilla
ENCODING 130
SWIDTH 500 0
DWIDTH 8 0
BBX 7 10 0 0
BITMAP
FC
00
78
84
04
1C
64
84
8C
72
ENDCHAR
STARTCHAR Eacute
ENCODING 131
SWIDTH 562 0
DWIDTH 9 0
BBX 7 13 1 0
BITMAP
08
10
00
FE
80
80
80
FE
80
80
80
80
FE
ENDCHAR
STARTCHAR Ntilde
ENCODING 132
SWIDTH 562 0
DWIDTH 9 0
BBX 9 12 0 -2
BITMAP
0800
0800
1400
1400
2200
2200
7F00
4100
8080
8080
0100
0180
ENDCHAR
STARTCHAR Odieresis
ENCODING 133
SWIDTH 687 0
DWIDTH 11 0
BBX 8 11 1 0
BITMAP
42
3C
42
81
81
81
81
81
81
42
3C
ENDCHAR
STARTCHAR Udieresis
ENCODING 134
SWIDTH 625 0
DWIDTH 10 0
BBX 8 11 1 0
BITMAP
24
81
81
81
81
81
81
81
81
42
3C
ENDCHAR
STARTCHAR aacute
ENCODING 135
SWIDTH 500 0
DWIDTH 8 0
BBX 7 11 0 0
BITMAP
10
20
00
78
84
04
1C
64
84
8C
72
ENDCHAR
STARTCHAR agrave
ENCODING 136
SWIDTH 500 0
DWIDTH 8 0
BBX 7 10 0 -2
BITMAP
78
84
04
1C
64
84
8C
72
04
06
ENDCHAR
STARTCHAR acircumflex
ENCODING 137
SWIDTH 625 0
DWIDTH 10 0
BBX 8 13 1 0
BITMAP
24
18
00
3C
42
81
80
80
80
80
81
42
3C
ENDCHAR
STARTCHAR adieresis
ENCODING 138
SWIDTH 500 0
DWIDTH 8 0
BBX 7 10 0 0
BITMAP
48
00
78
84
04
1C
64
84
8C
72
ENDCHAR
STARTCHAR atilde
ENCODING 139
SWIDTH 437 0
DWIDTH 7 0
BBX 5 11 1 0
BITMAP
48
30
00
30
48
80
80
80
80
48
30
ENDCHAR
STARTCHAR aring
ENCODING 140
SWIDTH 625 0
DWIDTH 10 0
BBX 8 13 1 0
BITMAP
08
10
00
3C
42
81
80
80
80
80
81
42
3C
ENDCHAR
STARTCHAR ccedilla
ENCODING 141
SWIDTH 437 0
DWIDTH 7 0
BBX 5 11 1 0
BITMAP
10
20
00
30
48
80
80
80
80
48
30
ENDCHAR
STARTCHAR eacute
ENCODING 142
SWIDTH 500 0
DWIDTH 8 0
BBX 6 11 1 0
BITMAP
10
20
00
30
48
84
FC
80
84
48
30
ENDCHAR
STARTCHAR egrave
ENCODING 143
SWIDTH 562 0
DWIDTH 9 0
BBX 7 13 1 0
BITMAP
08
10
00
FE
02
04
08
10
10
20
40
80
FE
ENDCHAR
STARTCHAR ecircumflex
ENCODING 144
SWIDTH 437 0
DWIDTH 7 0
BBX 6 11 0 0
BITMAP
10
20
00
FC
04
08
10
20
40
80
FC
ENDCHAR
STARTCHAR edieresis
ENCODING 145
SWIDTH 625 0
DWIDTH 10 0
BBX 8 13 1 0
BITMAP
28
10
00
FC
82
81
81
81
81
81
81
82
FC
ENDCHAR
STARTCHAR iacute
ENCODING 146
SWIDTH 250 0
DWIDTH 4 0
BBX 2 11 1 0
BITMAP
40
80
00
80
80
80
80
80
80
80
80
ENDCHAR
STARTCHAR igrave
ENCODING 147
SWIDTH 562 0
DWIDTH 9 0
BBX 8 11 1 0
BITMAP
01
05
06
34
4C
84
84
84
84
4C
34
ENDCHAR
STARTCHAR icircumflex
ENCODING 148
SWIDTH 562 0
DWIDTH 9 0
BBX 7 12 1 0
BITMAP
FE
00
FE
80
80
80
FE
80
80
80
80
FE
ENDCHAR
STARTCHAR idieresis
ENCODING 149
SWIDTH 500 0
DWIDTH 8 0
BBX 6 10 1 0
BITMAP
FC
00
30
48
84
FC
80
84
48
30
ENDCHAR
STARTCHAR ntilde
ENCODING 150
SWIDTH 562 0
DWIDTH 9 0
BBX 7 12 1 0
BITMAP
10
00
FE
80
80
80
FE
80
80
80
80
FE
ENDCHAR
STARTCHAR oacute
ENCODING 151
SWIDTH 500 0
DWIDTH 8 0
BBX 6 11 1 0
BITMAP
10
20
00
30
48
84
84
84
84
48
30
ENDCHAR
STARTCHAR ograve
ENCODING 152
SWIDTH 500 0
DWIDTH 8 0
BBX 6 10 1 0
BITMAP
20
00
30
48
84
FC
80
84
48
30
ENDCHAR
STARTCHAR ocircumflex
ENCODING 153
SWIDTH 437 0
DWIDTH 7 0
BBX 6 11 0 0
BITMAP
30
48
00
30
48
84
84
84
84
48
30
ENDCHAR
STARTCHAR odieresis
ENCODING 154
SWIDTH 437 0
DWIDTH 7 0
BBX 6 10 0 0
BITMAP
48
00
30
48
84
84
84
84
48
30
ENDCHAR
STARTCHAR otilde
ENCODING 155
SWIDTH 437 0
DWIDTH 7 0
BBX 6 11 0 0
BITMAP
64
98
00
30
48
84
84
84
84
48
30
ENDCHAR
STARTCHAR uacute
ENCODING 156
SWIDTH 500 0
DWIDTH 8 0
BBX 6 11 1 0
BITMAP
10
20
00
84
84
84
84
84
84
4C
34
ENDCHAR
STARTCHAR ugrave
ENCODING 157
SWIDTH 562 0
DWIDTH 9 0
BBX 7 13 1 0
BITMAP
28
10
00
FE
80
80
80
FE
80
80
80
80
FE
ENDCHAR
STARTCHAR ucircumflex
ENCODING 158
SWIDTH 500 0
DWIDTH 8 0
BBX 6 11 1 0
BITMAP
48
30
00
30
48
84
FC
80
84
48
30
ENDCHAR
STARTCHAR udieresis
ENCODING 159
SWIDTH 500 0
DWIDTH 8 0
BBX 6 10 1 0
BITMAP
48
00
84
84
84
84
84
84
4C
34
ENDCHAR
STARTCHAR dagger
ENCODING 160
SWIDTH 437 0
DWIDTH 7 0
BBX 5 12 1 -2
BITMAP
20
20
F8
20
20
20
20
20
20
20
20
20
ENDCHAR
STARTCHAR degree
ENCODING 161
SWIDTH 312 0
DWIDTH 5 0
BBX 4 4 0 6
BITMAP
60
90
90
60
ENDCHAR
STARTCHAR cent
ENCODING 162
SWIDTH 562 0
DWIDTH 9 0
BBX 7 13 1 -3
BITMAP
FE
80
80
80
FE
80
80
80
80
FE
10
20
18
ENDCHAR
STARTCHAR sterling
ENCODING 163
SWIDTH 500 0
DWIDTH 8 0
BBX 6 10 1 0
BITMAP
30
48
40
40
F0
40
40
40
44
F8
ENDCHAR
STARTCHAR section
ENCODING 164
SWIDTH 500 0
DWIDTH 8 0
BBX 5 13 1 -3
BITMAP
70
88
88
40
A0
90
88
48
28
10
08
88
70
ENDCHAR
STARTCHAR bullet
ENCODING 165
SWIDTH 312 0
DWIDTH 5 0
BBX 4 4 0 3
BITMAP
60
F0
F0
60
ENDCHAR
STARTCHAR paragraph
ENCODING 166
SWIDTH 500 0
DWIDTH 8 0
BBX 7 13 0 -3
BITMAP
3E
74
F4
F4
F4
74
34
14
14
14
14
14
14
ENDCHAR
STARTCHAR germandbls
ENCODING 167
SWIDTH 562 0
DWIDTH 9 0
BBX 6 10 1 0
BITMAP
38
44
84
84
98
84
84
84
84
98
ENDCHAR
STARTCHAR registered
ENCODING 168
SWIDTH 687 0
DWIDTH 11 0
BBX 10 10 0 0
BITMAP
1E00
6180
4080
9C40
9240
9C40
9240
4080
6180
1E00
ENDCHAR
STARTCHAR copyright
ENCODING 169
SWIDTH 687 0
DWIDTH 11 0
BBX 10 10 0 0
BITMAP
1E00
6180
4C80
9240
9040
9040
9240
4C80
6180
1E00
ENDCHAR
STARTCHAR trademark
ENCODING 170
SWIDTH 750 0
DWIDTH 12 0
BBX 11 5 0 5
BITMAP
FC60
A6C0
2540
2440
7EE0
ENDCHAR
STARTCHAR acute
ENCODING 171
SWIDTH 500 0
DWIDTH 8 0
BBX 6 10 1 -2
BITMAP
30
48
84
FC
80
84
48
30
20
10
ENDCHAR
STARTCHAR dieresis
ENCODING 172
SWIDTH 312 0
DWIDTH 5 0
BBX 3 1 1 9
BITMAP
A0
ENDCHAR
STARTCHAR notequal
ENCODING 173
SWIDTH 500 0
DWIDTH 8 0
BBX 7 5 0 1
BITMAP
08
FE
10
FE
20
ENDCHAR
STARTCHAR AE
ENCODING 174
SWIDTH 500 0
DWIDTH 8 0
BBX 6 14 1 -3
BITMAP
10
20
00
34
4C
84
84
84
84
4C
34
04
48
30
ENDCHAR
STARTCHAR Oslash
ENCODING 175
SWIDTH 250 0
DWIDTH 4 0
BBX 2 13 0 -3
BITMAP
40
40
40
40
40
40
40
40
40
40
80
80
40
ENDCHAR
STARTCHAR infinity
ENCODING 176
SWIDTH 187 0
DWIDTH 3 0
BBX 2 13 0 -3
BITMAP
40
00
40
40
40
40
40
40
40
40
80
80
40
ENDCHAR
STARTCHAR plusminus
ENCODING 177
SWIDTH 250 0
DWIDTH 4 0
BBX 3 12 0 0
BITMAP
E0
00
40
40
40
40
40
40
40
40
40
40
ENDCHAR
STARTCHAR lessequal
ENCODING 178
SWIDTH 500 0
DWIDTH 8 0
BBX 6 6 1 0
BITMAP
0C
30
C0
30
0C
FC
ENDCHAR
STARTCHAR greaterequal
ENCODING 179
SWIDTH 500 0
DWIDTH 8 0
BBX 6 6 1 0
BITMAP
C0
30
0C
30
C0
FC
ENDCHAR
STARTCHAR yen
ENCODING 180
SWIDTH 187 0
DWIDTH 3 0
BBX 3 10 0 0
BITMAP
E0
00
40
40
40
40
40
40
40
40
ENDCHAR
STARTCHAR mu
ENCODING 181
SWIDTH 562 0
DWIDTH 9 0
BBX 8 13 0 -3
BITMAP
82
84
88
90
A0
D0
88
84
82
81
30
10
20
ENDCHAR
STARTCHAR partialdiff
ENCODING 182
SWIDTH 437 0
DWIDTH 7 0
BBX 5 9 1 0
BITMAP
60
10
08
38
48
88
88
88
70
ENDCHAR
STARTCHAR summation
ENCODING 183
SWIDTH 625 0
DWIDTH 10 0
BBX 8 11 1 -1
BITMAP
FF
41
20
10
08
04
08
10
20
41
FF
ENDCHAR
STARTCHAR product
ENCODING 184
SWIDTH 187 0
DWIDTH 3 0
BBX 3 10 0 0
BITMAP
40
40
40
40
60
C0
40
40
40
40
ENDCHAR
STARTCHAR pi
ENCODING 185
SWIDTH 500 0
DWIDTH 8 0
BBX 6 13 1 -3
BITMAP
80
80
80
80
80
80
80
80
80
FC
10
10
20
ENDCHAR
STARTCHAR integral
ENCODING 186
SWIDTH 187 0
DWIDTH 3 0
BBX 2 13 1 -3
BITMAP
80
80
80
80
80
80
80
80
80
80
40
40
80
ENDCHAR
STARTCHAR ordfeminine
ENCODING 187
SWIDTH 500 0
DWIDTH 8 0
BBX 6 11 1 0
BITMAP
10
90
A0
80
80
80
80
80
80
80
FC
ENDCHAR
STARTCHAR ordmasculine
ENCODING 188
SWIDTH 250 0
DWIDTH 4 0
BBX 3 11 1 0
BITMAP
20
A0
C0
80
80
80
80
80
80
80
80
ENDCHAR
STARTCHAR Omega
ENCODING 189
SWIDTH 500 0
DWIDTH 8 0
BBX 6 13 1 0
BITMAP
40
80
00
80
80
80
80
80
80
80
80
80
FC
ENDCHAR
STARTCHAR ae
ENCODING 190
SWIDTH 187 0
DWIDTH 3 0
BBX 2 13 1 0
BITMAP
40
80
00
80
80
80
80
80
80
80
80
80
80
ENDCHAR
STARTCHAR oslash
ENCODING 191
SWIDTH 625 0
DWIDTH 10 0
BBX 8 13 1 -3
BITMAP
81
C1
A1
B1
91
89
8D
85
83
81
18
08
10
ENDCHAR
STARTCHAR questiondown
ENCODING 192
SWIDTH 500 0
DWIDTH 8 0
BBX 6 11 1 -3
BITMAP
B0
C8
84
84
84
84
84
80
30
10
20
ENDCHAR
STARTCHAR exclamdown
ENCODING 193
SWIDTH 625 0
DWIDTH 10 0
BBX 8 13 1 0
BITMAP
08
10
00
81
C1
A1
B1
91
89
8D
85
83
81
ENDCHAR
STARTCHAR logicalnot
ENCODING 194
SWIDTH 625 0
DWIDTH 10 0
BBX 8 3 1 2
BITMAP
FF
01
01
ENDCHAR
STARTCHAR radical
ENCODING 195
SWIDTH 500 0
DWIDTH 8 0
BBX 7 10 0 0
BITMAP
02
02
04
04
44
C8
28
28
10
10
ENDCHAR
STARTCHAR florin
ENCODING 196
SWIDTH 500 0
DWIDTH 8 0
BBX 6 11 1 0
BITMAP
10
20
00
B0
C8
84
84
84
84
84
84
ENDCHAR
STARTCHAR approxequal
ENCODING 197
SWIDTH 625 0
DWIDTH 10 0
BBX 8 13 1 0
BITMAP
24
18
00
81
C1
A1
B1
91
89
8D
85
83
81
ENDCHAR
STARTCHAR Delta
ENCODING 198
SWIDTH 562 0
DWIDTH 9 0
BBX 7 10 1 0
BITMAP
10
10
10
28
28
44
44
82
82
FE
ENDCHAR
STARTCHAR guillemotleft
ENCODING 199
SWIDTH 500 0
DWIDTH 8 0
BBX 6 5 0 2
BITMAP
24
48
90
48
24
ENDCHAR
STARTCHAR guillemotright
ENCODING 200
SWIDTH 500 0
DWIDTH 8 0
BBX 6 5 1 2
BITMAP
90
48
24
48
90
ENDCHAR
STARTCHAR ellipsis
ENCODING 201
SWIDTH 875 0
DWIDTH 14 0
BBX 11 1 1 0
BITMAP
8420
ENDCHAR
STARTCHAR nbspace
ENCODING 202
SWIDTH 500 0
DWIDTH 8 0
BBX 0 0 0 -3
BITMAP
ENDCHAR
STARTCHAR Agrave
ENCODING 203
SWIDTH 500 0
DWIDTH 8 0
BBX 6 11 1 0
BITMAP
48
30
00
B0
C8
84
84
84
84
84
84
ENDCHAR
STARTCHAR Atilde
ENCODING 204
SWIDTH 687 0
DWIDTH 11 0
BBX 8 13 1 0
BITMAP
12
24
00
3C
42
81
81
81
81
81
81
42
3C
ENDCHAR
STARTCHAR Otilde
ENCODING 205
SWIDTH 687 0
DWIDTH 11 0
BBX 8 13 1 0
BITMAP
32
4C
00
3C
42
81
81
81
81
81
81
42
3C
ENDCHAR
STARTCHAR OE
ENCODING 206
SWIDTH 500 0
DWIDTH 8 0
BBX 6 11 1 0
BITMAP
24
48
00
30
48
84
84
84
84
48
30
ENDCHAR
STARTCHAR oe
ENCODING 207
SWIDTH 687 0
DWIDTH 11 0
BBX 8 12 1 0
BITMAP
7E
00
3C
42
81
81
81
81
81
81
42
3C
ENDCHAR
STARTCHAR endash
ENCODING 208
SWIDTH 500 0
DWIDTH 8 0
BBX 7 1 0 4
BITMAP
FE
ENDCHAR
STARTCHAR emdash
ENCODING 209
SWIDTH 875 0
DWIDTH 14 0
BBX 12 1 0 4
BITMAP
FFF0
ENDCHAR
STARTCHAR quotedblleft
ENCODING 210
SWIDTH 312 0
DWIDTH 5 0
BBX 4 3 0 7
BITMAP
50
A0
A0
ENDCHAR
STARTCHAR quotedblright
ENCODING 211
SWIDTH 312 0
DWIDTH 5 0
BBX 4 3 0 7
BITMAP
50
50
A0
ENDCHAR
STARTCHAR quoteleft
ENCODING 212
SWIDTH 187 0
DWIDTH 3 0
BBX 2 3 0 7
BITMAP
40
80
80
ENDCHAR
STARTCHAR quoteright
ENCODING 213
SWIDTH 187 0
DWIDTH 3 0
BBX 2 3 0 7
BITMAP
40
40
80
ENDCHAR
STARTCHAR divide
ENCODING 214
SWIDTH 500 0
DWIDTH 8 0
BBX 7 5 0 1
BITMAP
10
00
FE
00
10
ENDCHAR
STARTCHAR lozenge
ENCODING 215
SWIDTH 437 0
DWIDTH 7 0
BBX 5 10 1 0
BITMAP
20
20
50
50
88
88
50
50
20
20
ENDCHAR
STARTCHAR ydieresis
ENCODING 216
SWIDTH 500 0
DWIDTH 8 0
BBX 6 10 1 0
BITMAP
FC
00
30
48
84
84
84
84
48
30
ENDCHAR
STARTCHAR Ydieresis
ENCODING 217
SWIDTH 625 0
DWIDTH 10 0
BBX 8 13 1 0
BITMAP
08
10
00
FC
82
81
81
82
FC
82
81
81
81
ENDCHAR
STARTCHAR fraction
ENCODING 218
SWIDTH 312 0
DWIDTH 5 0
BBX 4 11 1 0
BITMAP
20
40
00
B0
C0
80
80
80
80
80
80
ENDCHAR
STARTCHAR currency
ENCODING 219
SWIDTH 625 0
DWIDTH 10 0
BBX 8 13 1 0
BITMAP
28
10
00
FC
82
81
81
82
FC
82
81
81
81
ENDCHAR
STARTCHAR guilsinglleft
ENCODING 220
SWIDTH 312 0
DWIDTH 5 0
BBX 4 7 0 1
BITMAP
10
20
40
80
40
20
10
ENDCHAR
STARTCHAR guilsinglright
ENCODING 221
SWIDTH 312 0
DWIDTH 5 0
BBX 4 7 0 1
BITMAP
80
40
20
10
20
40
80
ENDCHAR
STARTCHAR fi
ENCODING 222
SWIDTH 312 0
DWIDTH 5 0
BBX 4 11 1 0
BITMAP
90
60
00
B0
C0
80
80
80
80
80
80
ENDCHAR
STARTCHAR fl
ENCODING 223
SWIDTH 625 0
DWIDTH 10 0
BBX 8 13 1 -3
BITMAP
FC
82
81
81
82
FC
82
81
81
81
18
08
10
ENDCHAR
STARTCHAR daggerdbl
ENCODING 224
SWIDTH 312 0
DWIDTH 5 0
BBX 4 11 1 -3
BITMAP
B0
C0
80
80
80
80
80
00
C0
40
80
ENDCHAR
STARTCHAR periodcentered
ENCODING 225
SWIDTH 562 0
DWIDTH 9 0
BBX 7 13 1 0
BITMAP
28
10
00
38
44
82
40
38
04
02
82
44
38
ENDCHAR
STARTCHAR quotesinglbase
ENCODING 226
SWIDTH 187 0
DWIDTH 3 0
BBX 2 4 0 -3
BITMAP
40
40
40
80
ENDCHAR
STARTCHAR quotedblbase
ENCODING 227
SWIDTH 250 0
DWIDTH 4 0
BBX 4 4 0 -3
BITMAP
50
50
50
A0
ENDCHAR
STARTCHAR perthousand
ENCODING 228
SWIDTH 437 0
DWIDTH 7 0
BBX 5 11 1 0
BITMAP
50
20
00
70
88
80
70
08
08
88
70
ENDCHAR
STARTCHAR Acircumflex
ENCODING 229
SWIDTH 562 0
DWIDTH 9 0
BBX 7 13 1 0
BITMAP
08
10
00
38
44
82
40
38
04
02
82
44
38
ENDCHAR
STARTCHAR Ecircumflex
ENCODING 230
SWIDTH 437 0
DWIDTH 7 0
BBX 5 11 1 0
BITMAP
10
20
00
70
88
80
70
08
08
88
70
ENDCHAR
STARTCHAR Aacute
ENCODING 231
SWIDTH 562 0
DWIDTH 9 0
BBX 9 13 0 0
BITMAP
0400
0800
0000
0800
0800
1400
1400
2200
2200
7F00
4100
8080
8080
ENDCHAR
STARTCHAR Edieresis
ENCODING 232
SWIDTH 562 0
DWIDTH 9 0
BBX 7 13 1 0
BITMAP
28
10
00
FE
10
10
10
10
10
10
10
10
10
ENDCHAR
STARTCHAR Egrave
ENCODING 233
SWIDTH 312 0
DWIDTH 5 0
BBX 5 11 0 0
BITMAP
08
48
50
E0
40
40
40
40
40
40
20
ENDCHAR
STARTCHAR Iacute
ENCODING 234
SWIDTH 250 0
DWIDTH 4 0
BBX 2 13 1 0
BITMAP
40
80
00
80
80
80
80
80
80
80
80
80
80
ENDCHAR
STARTCHAR Icircumflex
ENCODING 235
SWIDTH 562 0
DWIDTH 9 0
BBX 7 13 1 0
BITMAP
28
10
00
FE
02
04
08
10
10
20
40
80
FE
ENDCHAR
STARTCHAR Idieresis
ENCODING 236
SWIDTH 437 0
DWIDTH 7 0
BBX 6 11 0 0
BITMAP
48
30
00
FC
04
08
10
20
40
80
FC
ENDCHAR
STARTCHAR Igrave
ENCODING 237
SWIDTH 625 0
DWIDTH 10 0
BBX 8 12 1 0
BITMAP
7E
00
81
81
81
81
81
81
81
81
42
3C
ENDCHAR
STARTCHAR Oacute
ENCODING 238
SWIDTH 687 0
DWIDTH 11 0
BBX 8 13 1 0
BITMAP
08
10
00
3C
42
81
81
81
81
81
81
42
3C
ENDCHAR
STARTCHAR Ocircumflex
ENCODING 239
SWIDTH 687 0
DWIDTH 11 0
BBX 8 13 1 0
BITMAP
18
24
00
3C
42
81
81
81
81
81
81
42
3C
ENDCHAR
STARTCHAR apple
ENCODING 240
SWIDTH 500 0
DWIDTH 8 0
BBX 6 10 1 0
BITMAP
78
00
84
84
84
84
84
84
4C
34
ENDCHAR
STARTCHAR Ograve
ENCODING 241
SWIDTH 625 0
DWIDTH 10 0
BBX 8 13 1 0
BITMAP
18
24
18
81
81
81
81
81
81
81
81
42
3C
ENDCHAR
STARTCHAR Uacute
ENCODING 242
SWIDTH 625 0
DWIDTH 10 0
BBX 8 13 1 0
BITMAP
08
10
00
81
81
81
81
81
81
81
81
42
3C
ENDCHAR
STARTCHAR Ucircumflex
ENCODING 243
SWIDTH 500 0
DWIDTH 8 0
BBX 6 11 1 0
BITMAP
30
48
30
84
84
84
84
84
84
4C
34
ENDCHAR
STARTCHAR Ugrave
ENCODING 244
SWIDTH 625 0
DWIDTH 10 0
BBX 8 13 1 0
BITMAP
12
24
00
81
81
81
81
81
81
81
81
42
3C
ENDCHAR
STARTCHAR dotlessi
ENCODING 245
SWIDTH 500 0
DWIDTH 8 0
BBX 6 11 1 0
BITMAP
24
48
00
84
84
84
84
84
84
4C
34
ENDCHAR
STARTCHAR circumflex
ENCODING 246
SWIDTH 625 0
DWIDTH 10 0
BBX 8 13 1 -3
BITMAP
81
81
81
81
81
81
81
81
42
3C
08
10
0C
ENDCHAR
STARTCHAR tilde
ENCODING 247
SWIDTH 500 0
DWIDTH 8 0
BBX 6 11 1 -3
BITMAP
84
84
84
84
84
84
4C
34
08
10
0C
ENDCHAR
STARTCHAR macron
ENCODING 248
SWIDTH 562 0
DWIDTH 9 0
BBX 9 13 0 0
BITMAP
0400
0800
0000
8080
4100
2200
1400
0800
0800
0800
0800
0800
0800
ENDCHAR
STARTCHAR breve
ENCODING 249
SWIDTH 437 0
DWIDTH 7 0
BBX 7 14 0 -3
BITMAP
08
10
00
82
82
44
44
28
28
10
10
20
20
C0
ENDCHAR
STARTCHAR dotaccent
ENCODING 250
SWIDTH 437 0
DWIDTH 7 0
BBX 5 13 1 -3
BITMAP
80
80
88
90
A0
C0
C0
A0
90
88
60
20
40
ENDCHAR
STARTCHAR ring
ENCODING 251
SWIDTH 562 0
DWIDTH 9 0
BBX 7 12 1 0
BITMAP
10
00
FE
02
04
08
10
10
20
40
80
FE
ENDCHAR
STARTCHAR cedilla
ENCODING 252
SWIDTH 500 0
DWIDTH 8 0
BBX 7 10 0 0
BITMAP
40
40
40
40
60
C0
40
40
40
7E
ENDCHAR
STARTCHAR hungarumlaut
ENCODING 253
SWIDTH 437 0
DWIDTH 7 0
BBX 6 10 0 0
BITMAP
10
00
FC
04
08
10
20
40
80
FC
ENDCHAR
STARTCHAR ogonek
ENCODING 254
SWIDTH 625 0
DWIDTH 10 0
BBX 8 13 1 -3
BITMAP
3C
42
81
80
80
87
81
81
43
3D
08
08
10
ENDCHAR
STARTCHAR caron
ENCODING 255
SWIDTH 375 0
DWIDTH 6 0
BBX 5 3 0 7
BITMAP
88
50
20
ENDCHAR
ENDFONT
